# xmcd
#
# Track frame offsets:
#	225
#	13527
#	23800
#	43083
#	53747
#	65588
#	75928
#	91771
#	103493
#	113016
#	125355
#	138824
#	150913
#	167756
#	179028
#	195140
#
# Disc length: 2750
#
# Revision: 1
# Processed by: cddbd v1.5.1PL0 Copyright (c) Steve Scherf et al.
# Submitted via: EasyCDDAExtractor 4.6.0.1
# Normalized: r0:DSETVAR1,TDELIM( - )
#
DISCID=c00abb10
DTITLE=Various Artist - THE BEST OF COUNTRY 1 [CD-2)
DYEAR=1996
DGENRE=Country
TTITLE0=DON WILLIAMS - Where Do I Go From Here?
TTITLE1=CARL PERKINS - Daddy Sang Bass
TTITLE2=JOHN DENVER - For You
TTITLE3=PATSY CLINE - Honky Tonk Merry Go Round
TTITLE4=JIM REEVES - Mexican Joe
TTITLE5=BILLIE JO SPEARS - It Makes No Difference Now
TTITLE6=CHARLY PRIDE - Let Me Live In The Light Of His Love
TTITLE7=BRENDA LEE - Silver Treads And Golden Needles
TTITLE8=DAVE DUDLEY - Six Days On The Road
TTITLE9=ANNE MURRAY - All The Time
TTITLE10=GEORG JONES - Almost Persuaded
TTITLE11=JOHNNY CASH - Sixteen Tons
TTITLE12=FERLIN HUSKY - For The Good Times
TTITLE13=JO ANNE HOUSTON - The Race Is On
TTITLE14=JERRY LEE LEWIS - She Even Woke Me Up To Say Goodbye
TTITLE15=ROY DRUSKY - Blue Eyes Crying In The Rain
EXTD=
EXTT0=
EXTT1=
EXTT2=
EXTT3=
EXTT4=
EXTT5=
EXTT6=
EXTT7=
EXTT8=
EXTT9=
EXTT10=
EXTT11=
EXTT12=
EXTT13=
EXTT14=
EXTT15=
PLAYORDER=
